<svg width="602" height="802" viewBox="0 0 602 802" fill="none" xmlns="http://www.w3.org/2000/svg">
<rect x="1.00177" y="1" width="600" height="800" rx="25" fill="white" stroke="black"/>
<line x1="1" y1="20.4678" x2="600.003" y2="20.4678" stroke="#3852FB"/>
<line x1="1" y1="38.4678" x2="600.003" y2="38.4678" stroke="#3852FB"/>
<line x1="1" y1="56.4678" x2="600.003" y2="56.4678" stroke="#3852FB"/>
<line x1="1" y1="74.4678" x2="600.003" y2="74.4678" stroke="#3852FB"/>
<line x1="1" y1="92.4678" x2="600.003" y2="92.4678" stroke="#3852FB"/>
<line x1="1" y1="110.468" x2="600.003" y2="110.468" stroke="#3852FB"/>
<line x1="1" y1="128.468" x2="600.003" y2="128.468" stroke="#3852FB"/>
<line x1="1" y1="146.468" x2="600.003" y2="146.468" stroke="#3852FB"/>
<line x1="1" y1="164.468" x2="600.003" y2="164.468" stroke="#3852FB"/>
<line x1="1" y1="182.468" x2="600.003" y2="182.468" stroke="#3852FB"/>
<line x1="1" y1="200.468" x2="600.003" y2="200.468" stroke="#3852FB"/>
<line x1="1" y1="218.468" x2="600.003" y2="218.468" stroke="#3852FB"/>
<line x1="1" y1="236.468" x2="600.003" y2="236.468" stroke="#3852FB"/>
<line x1="1" y1="254.468" x2="600.003" y2="254.468" stroke="#3852FB"/>
<line x1="1" y1="272.468" x2="600.003" y2="272.468" stroke="#3852FB"/>
<line x1="1" y1="290.468" x2="600.003" y2="290.468" stroke="#3852FB"/>
<line x1="1" y1="290.468" x2="600.003" y2="292.468" stroke="#3852FB"/>
<line x1="1" y1="308.468" x2="600.003" y2="310.468" stroke="#3852FB"/>
<line x1="1" y1="326.468" x2="600.003" y2="328.468" stroke="#3852FB"/>
<line x1="1" y1="344.468" x2="600.003" y2="346.468" stroke="#3852FB"/>
<line x1="1" y1="362.468" x2="600.003" y2="364.468" stroke="#3852FB"/>
<line x1="1" y1="380.468" x2="600.003" y2="382.468" stroke="#3852FB"/>
<line x1="1" y1="398.468" x2="600.003" y2="400.468" stroke="#3852FB"/>
<line x1="1" y1="416.468" x2="600.003" y2="418.468" stroke="#3852FB"/>
<line x1="1" y1="434.468" x2="600.003" y2="436.468" stroke="#3852FB"/>
<line x1="1" y1="452.468" x2="600.003" y2="454.468" stroke="#3852FB"/>
<line x1="1" y1="470.468" x2="600.003" y2="472.468" stroke="#3852FB"/>
<line x1="1" y1="488.468" x2="600.003" y2="490.468" stroke="#3852FB"/>
<line x1="1" y1="506.468" x2="600.003" y2="508.468" stroke="#3852FB"/>
<line x1="1" y1="524.468" x2="600.003" y2="526.468" stroke="#3852FB"/>
<line x1="1" y1="542.468" x2="600.003" y2="544.468" stroke="#3852FB"/>
<line x1="1" y1="560.468" x2="600.003" y2="562.468" stroke="#3852FB"/>
<line x1="1" y1="560.468" x2="600.003" y2="563.468" stroke="#3852FB"/>
<line x1="1" y1="578.468" x2="600.003" y2="581.468" stroke="#3852FB"/>
<line x1="1" y1="596.468" x2="600.003" y2="599.468" stroke="#3852FB"/>
<line x1="1" y1="614.468" x2="600.003" y2="617.468" stroke="#3852FB"/>
<line x1="1" y1="632.468" x2="600.003" y2="635.468" stroke="#3852FB"/>
<line x1="1" y1="650.468" x2="600.003" y2="653.468" stroke="#3852FB"/>
<line x1="1" y1="668.468" x2="600.003" y2="671.468" stroke="#3852FB"/>
<line x1="1" y1="686.468" x2="600.003" y2="689.468" stroke="#3852FB"/>
<line x1="1" y1="704.468" x2="600.003" y2="707.468" stroke="#3852FB"/>
<line x1="1" y1="722.468" x2="600.003" y2="725.468" stroke="#3852FB"/>
<line x1="1" y1="740.468" x2="600.003" y2="743.468" stroke="#3852FB"/>
<line x1="1" y1="758.468" x2="600.003" y2="761.468" stroke="#3852FB"/>
<line x1="1" y1="776.468" x2="600.003" y2="779.468" stroke="#3852FB"/>
<line x1="9.00177" y1="794.5" x2="593.002" y2="797.5" stroke="#3852FB"/>
<line x1="101.252" y1="1" x2="101.252" y2="801.016" stroke="#FF0000" stroke-width="2"/>
<line x1="101.001" y1="59.5" x2="601.002" y2="59.5" stroke="#FF0000" stroke-width="2"/>
<line x1="101.001" y1="125.5" x2="601.002" y2="125.5" stroke="#FF0000" stroke-width="2"/>
<line x1="203.002" y1="60" x2="203.002" y2="126" stroke="#FF0000" stroke-width="2"/>
</svg>
